<svg width="233.68" height="98.724" viewBox="0 0 233.68 98.724" xmlns="http://www.w3.org/2000/svg"><g id="svgGroup" stroke-linecap="round" fill-rule="evenodd" font-size="9pt" stroke="#2e58c2" stroke-width="0.25mm" fill="#35ada9" style="stroke:#2e58c2;stroke-width:0.25mm;fill:#35ada9"><path d="M 70.16 32.084 L 80.64 23.284 Q 80.32 20.484 80.32 17.764 Q 80.32 0.004 89.68 0.004 Q 92.08 0.004 93.44 1.684 Q 94.8 3.364 94.96 6.004 Q 95.04 9.844 92.52 13.684 Q 90 17.524 85.12 22.084 Q 87.6 38.644 87.6 44.604 Q 87.6 50.564 86.08 56.124 Q 84.56 61.684 81.44 66.244 Q 78.32 70.804 72.88 73.364 Q 67.44 75.924 60.24 75.924 Q 49.92 75.924 44.64 68.884 Q 43.2 73.924 43.2 80.364 Q 43.2 86.804 46.6 91.964 Q 50 97.124 55.36 97.124 Q 55.76 97.124 55.8 97.924 Q 55.84 98.724 55.36 98.724 Q 49.04 98.724 44.96 92.764 Q 40.88 86.804 40.88 79.524 Q 40.88 72.244 42.96 66.164 Q 40.32 61.204 40.32 54.484 Q 40.32 48.244 42.44 43.324 Q 44.56 38.404 47.08 35.404 Q 49.6 32.404 53.24 30.604 Q 56.88 28.804 60.96 28.804 Q 66.72 28.804 70.16 32.084 Z M 131.68 32.084 L 142.16 23.284 Q 141.84 20.484 141.84 17.764 Q 141.84 0.004 151.2 0.004 Q 153.6 0.004 154.96 1.684 Q 156.32 3.364 156.48 6.004 Q 156.56 9.844 154.04 13.684 Q 151.52 17.524 146.64 22.084 Q 149.12 38.644 149.12 44.604 Q 149.12 50.564 147.6 56.124 Q 146.08 61.684 142.96 66.244 Q 139.84 70.804 134.4 73.364 Q 128.96 75.924 121.76 75.924 Q 111.44 75.924 106.16 68.884 Q 104.72 73.924 104.72 80.364 Q 104.72 86.804 108.12 91.964 Q 111.52 97.124 116.88 97.124 Q 117.28 97.124 117.32 97.924 Q 117.36 98.724 116.88 98.724 Q 110.56 98.724 106.48 92.764 Q 102.4 86.804 102.4 79.524 Q 102.4 72.244 104.48 66.164 Q 101.84 61.204 101.84 54.484 Q 101.84 48.244 103.96 43.324 Q 106.08 38.404 108.6 35.404 Q 111.12 32.404 114.76 30.604 Q 118.4 28.804 122.48 28.804 Q 128.24 28.804 131.68 32.084 Z M 80.88 25.844 L 71.52 33.604 Q 73.76 36.644 73.76 40.444 Q 73.76 44.244 72.6 47.244 Q 71.44 50.244 68.52 52.524 Q 65.6 54.804 61.76 54.804 Q 60.96 54.804 60.52 54.404 Q 60.08 54.004 59.92 53.124 Q 63.36 53.124 66.24 49.924 Q 70.4 45.444 70.4 39.844 Q 70.4 37.524 69.52 35.364 Q 60.56 43.044 54.4 50.404 Q 48.24 57.764 45.36 66.404 Q 49.92 73.764 59.68 73.764 Q 65.68 73.764 70.2 71.244 Q 74.72 68.724 77.28 64.404 Q 82.32 55.924 82.32 43.844 Q 82.32 40.884 80.88 25.844 Z M 142.4 25.844 L 133.04 33.604 Q 135.28 36.644 135.28 40.444 Q 135.28 44.244 134.12 47.244 Q 132.96 50.244 130.04 52.524 Q 127.12 54.804 123.28 54.804 Q 122.48 54.804 122.04 54.404 Q 121.6 54.004 121.44 53.124 Q 124.88 53.124 127.76 49.924 Q 131.92 45.444 131.92 39.844 Q 131.92 37.524 131.04 35.364 Q 122.08 43.044 115.92 50.404 Q 109.76 57.764 106.88 66.404 Q 111.44 73.764 121.2 73.764 Q 127.2 73.764 131.72 71.244 Q 136.24 68.724 138.8 64.404 Q 143.84 55.924 143.84 43.844 Q 143.84 40.884 142.4 25.844 Z M 162.96 73.364 Q 162.16 73.364 162.16 72.164 Q 162.16 70.964 163.68 67.764 Q 165.2 64.564 170.52 53.004 Q 175.84 41.444 181.76 28.444 Q 187.68 15.444 188.56 13.524 Q 189.52 11.844 190.72 11.844 Q 192.16 11.844 192.16 13.844 Q 192.16 16.004 190.48 19.204 Q 190.24 19.764 178.64 42.844 Q 167.04 65.924 164.16 72.164 Q 163.6 73.364 162.96 73.364 Z M 208.48 62.244 Q 208.48 59.124 214.08 54.484 Q 219.68 49.844 224.96 49.364 Q 220.4 47.204 216.6 42.364 Q 212.8 37.524 212.8 34.244 Q 212.8 33.204 213.12 32.524 Q 213.44 31.844 214.08 31.604 Q 214.08 36.644 220.2 42.244 Q 226.32 47.844 233.68 47.844 Q 233.44 48.804 232.2 49.644 Q 230.96 50.484 229.44 50.484 Q 222.08 50.484 215.96 55.444 Q 209.84 60.404 209.84 64.804 Q 208.48 64.564 208.48 62.244 Z M 20 64.724 L 19.6 64.804 Q 19.6 59.764 13.48 54.164 Q 7.36 48.564 0 48.564 Q 0 47.924 0.88 47.204 Q 2.48 45.924 4.32 45.924 Q 11.6 45.924 17.76 40.924 Q 23.92 35.924 23.92 31.604 Q 25.28 31.844 25.28 34.564 Q 25.28 37.284 19.72 41.964 Q 14.16 46.644 8.96 47.124 Q 13.44 49.364 17.2 54.164 Q 20.96 58.964 20.96 62.244 Q 20.96 64.324 20 64.724 Z M 68.32 33.684 Q 65.76 30.964 61.28 30.964 Q 56.8 30.964 53.2 33.124 Q 46.56 37.124 43.68 46.564 Q 42.4 50.564 42.4 54.804 Q 42.4 59.524 43.92 63.524 Q 49.44 49.684 68.32 33.684 Z M 129.84 33.684 Q 127.28 30.964 122.8 30.964 Q 118.32 30.964 114.72 33.124 Q 108.08 37.124 105.2 46.564 Q 103.92 50.564 103.92 54.804 Q 103.92 59.524 105.44 63.524 Q 110.96 49.684 129.84 33.684 Z M 84.4 13.684 Q 84.4 15.844 84.8 19.444 Q 92.72 11.684 92.72 6.324 Q 92.72 2.164 89.68 2.164 Q 84.4 2.164 84.4 13.684 Z M 145.92 13.684 Q 145.92 15.844 146.32 19.444 Q 154.24 11.684 154.24 6.324 Q 154.24 2.164 151.2 2.164 Q 145.92 2.164 145.92 13.684 Z" vector-effect="non-scaling-stroke"/></g></svg>